# xmcd
#
# Track frame offsets: 
#        150
#        21300
#        45420
#        63273
#        86408
#        100808
#        121993
#        149965
#        165575
#        192050
#        212510
#        227963
#
# Disc length: 3291 seconds
#
# Revision: 1
# Processed by: cddbd v1.5.2PL0 Copyright (c) Steve Scherf et al.
# Submitted via: ExactAudioCopy v1.0b3
#
DISCID=a10cd90c
DTITLE=Various Artist - Khong Bao Gio Quen Anh
DYEAR=1990
DGENRE=
TTITLE0=Thanh Tuyen - Khong bao gio quen anh
TTITLE1=Giao Linh - Chuyen tinh nguoi dan ao
TTITLE2=Son ca - Hoa no tren duong que
TTITLE3=Truc Mai - La vang roi
TTITLE4=Son Ca - Thuyen khong ben do
TTITLE5=Bang Chau - Loi ru cua Me
TTITLE6=Thanh Tuyen - Vong gac dem suong
TTITLE7=Bang Chau - Mua mua di qua
TTITLE8=Giao Linh - Yeu mot minh
TTITLE9=Truc Mai - Le doi
TTITLE10=Son Ca - Xin cho toi giac mong binh yen
TTITLE11=Thanh Tuyen - Bai ca cua nang
EXTD=
EXTT0=
EXTT1=
EXTT2=
EXTT3=
EXTT4=
EXTT5=
EXTT6=
EXTT7=
EXTT8=
EXTT9=
EXTT10=
EXTT11=
PLAYORDER=
